<svg xmlns="http://www.w3.org/2000/svg" viewBox="0 0 128 128" width="128" height="128" role="img" aria-label="Theo avatar">
  <circle cx="64" cy="64" r="64" fill="#FFE1A8"/>
  <ellipse cx="64" cy="76" rx="28" ry="30" fill="#E8A672"/>
  <circle cx="37" cy="78" r="6" fill="#E8A672"/>
  <circle cx="91" cy="78" r="6" fill="#E8A672"/>
  <path d="M36,58 Q64,36 92,58 L92,48 Q64,30 36,48 Z" fill="#4B2E1E"/>
  <path d="M46,98 Q64,112 82,98 L82,104 Q64,116 46,104 Z" fill="#4B2E1E"/>
  <g fill="none" stroke="#2B2118" stroke-width="3">
    <rect x="43" y="68" width="18" height="13" rx="4"/>
    <rect x="67" y="68" width="18" height="13" rx="4"/>
    <path d="M61,74 L67,74"/>
  </g>
  <ellipse cx="52" cy="75" rx="2.5" ry="3" fill="#2B2118"/>
  <ellipse cx="76" cy="75" rx="2.5" ry="3" fill="#2B2118"/>
  <path d="M52,90 Q64,98 76,90" stroke="#7A4B32" stroke-width="3.5" fill="none" stroke-linecap="round"/>
</svg>
